<?xml version="1.0" encoding="UTF-8" standalone="no"?>
<!-- Created with Inkscape (http://www.inkscape.org/) -->

<svg
   width="1920mm"
   height="367.30435mm"
   viewBox="0 0 1920.0001 367.30435"
   version="1.1"
   id="svg1"
   inkscape:version="1.4.2 (ebf0e940, 2025-05-08)"
   sodipodi:docname="europass_logo.svg"
   xmlns:inkscape="http://www.inkscape.org/namespaces/inkscape"
   xmlns:sodipodi="http://sodipodi.sourceforge.net/DTD/sodipodi-0.dtd"
   xmlns="http://www.w3.org/2000/svg"
   xmlns:svg="http://www.w3.org/2000/svg">
  <sodipodi:namedview
     id="namedview1"
     pagecolor="#505050"
     bordercolor="#ffffff"
     borderopacity="1"
     inkscape:showpageshadow="0"
     inkscape:pageopacity="0"
     inkscape:pagecheckerboard="1"
     inkscape:deskcolor="#d1d1d1"
     inkscape:document-units="mm"
     inkscape:zoom="0.11504257"
     inkscape:cx="2977.1589"
     inkscape:cy="465.04525"
     inkscape:window-width="1920"
     inkscape:window-height="958"
     inkscape:window-x="0"
     inkscape:window-y="30"
     inkscape:window-maximized="1"
     inkscape:current-layer="layer1" />
  <defs
     id="defs1">
    <clipPath
       clipPathUnits="userSpaceOnUse"
       id="clipPath212">
      <path
         d="m 449.95312,800 h 61 v 12 h -61 z"
         transform="matrix(1.8852459,0,0,1.8852459,-848.27228,-1508.5083)"
         id="path212" />
    </clipPath>
    <clipPath
       clipPathUnits="userSpaceOnUse"
       id="clipPath214">
      <path
         d="m 449.95312,800 h 61 v 12 h -61 z"
         transform="matrix(1.8852459,0,0,1.8852459,-848.27228,-1508.5083)"
         id="path214" />
    </clipPath>
    <clipPath
       clipPathUnits="userSpaceOnUse"
       id="clipPath216">
      <path
         d="m 449.95312,800 h 61 v 12 h -61 z"
         transform="matrix(1.8852459,0,0,1.8852459,-848.27228,-1508.5083)"
         id="path216" />
    </clipPath>
    <clipPath
       clipPathUnits="userSpaceOnUse"
       id="clipPath218">
      <path
         d="m 449.95312,800 h 61 v 12 h -61 z"
         transform="matrix(1.8852459,0,0,1.8852459,-848.27228,-1508.5083)"
         id="path218" />
    </clipPath>
    <clipPath
       clipPathUnits="userSpaceOnUse"
       id="clipPath220">
      <path
         d="m 449.95312,800 h 61 v 12 h -61 z"
         transform="matrix(1.8852459,0,0,1.8852459,-848.27228,-1508.5083)"
         id="path220" />
    </clipPath>
    <clipPath
       clipPathUnits="userSpaceOnUse"
       id="clipPath222">
      <path
         d="m 449.95312,800 h 61 v 12 h -61 z"
         transform="matrix(1.8852459,0,0,1.8852459,-848.27228,-1508.5083)"
         id="path222" />
    </clipPath>
    <clipPath
       clipPathUnits="userSpaceOnUse"
       id="clipPath224">
      <path
         d="m 449.95312,800 h 61 v 12 h -61 z"
         transform="matrix(1.8852459,0,0,1.8852459,-848.27228,-1508.5083)"
         id="path224" />
    </clipPath>
    <clipPath
       clipPathUnits="userSpaceOnUse"
       id="clipPath226">
      <path
         d="m 449.95312,800 h 61 v 12 h -61 z"
         transform="matrix(1.8852459,0,0,1.8852459,-848.27228,-1508.5083)"
         id="path226" />
    </clipPath>
    <clipPath
       clipPathUnits="userSpaceOnUse"
       id="clipPath228">
      <path
         d="m 449.95312,800 h 61 v 12 h -61 z"
         transform="matrix(1.8852459,0,0,1.8852459,-848.27228,-1508.5083)"
         id="path228" />
    </clipPath>
    <clipPath
       clipPathUnits="userSpaceOnUse"
       id="clipPath230">
      <path
         d="m 449.95312,800 h 61 v 12 h -61 z"
         transform="matrix(1.8852459,0,0,1.8852459,-848.27228,-1508.5083)"
         id="path230" />
    </clipPath>
    <clipPath
       clipPathUnits="userSpaceOnUse"
       id="clipPath232">
      <path
         d="m 449.95312,800 h 61 v 12 h -61 z"
         transform="matrix(1.8852459,0,0,1.8852459,-848.27228,-1508.5083)"
         id="path232" />
    </clipPath>
    <clipPath
       clipPathUnits="userSpaceOnUse"
       id="clipPath234">
      <path
         d="m 449.95312,800 h 61 v 12 h -61 z"
         transform="matrix(1.8852459,0,0,1.8852459,-848.27228,-1508.5083)"
         id="path234" />
    </clipPath>
    <clipPath
       clipPathUnits="userSpaceOnUse"
       id="clipPath236">
      <path
         d="m 449.95312,800 h 61 v 12 h -61 z"
         transform="matrix(1.8852459,0,0,1.8852459,-848.27228,-1508.5083)"
         id="path236" />
    </clipPath>
    <clipPath
       clipPathUnits="userSpaceOnUse"
       id="clipPath238">
      <path
         d="m 449.95312,800 h 61 v 12 h -61 z"
         transform="matrix(1.8852459,0,0,1.8852459,-848.27228,-1508.5083)"
         id="path238" />
    </clipPath>
    <clipPath
       clipPathUnits="userSpaceOnUse"
       id="clipPath240">
      <path
         d="m 449.95312,800 h 61 v 12 h -61 z"
         transform="matrix(1.8852459,0,0,1.8852459,-848.27228,-1508.5083)"
         id="path240" />
    </clipPath>
    <clipPath
       clipPathUnits="userSpaceOnUse"
       id="clipPath242">
      <path
         d="m 449.95312,800 h 61 v 12 h -61 z"
         transform="matrix(1.8852459,0,0,1.8852459,-848.27228,-1508.5083)"
         id="path242" />
    </clipPath>
    <clipPath
       clipPathUnits="userSpaceOnUse"
       id="clipPath244">
      <path
         d="m 449.95312,800 h 61 v 12 h -61 z"
         transform="matrix(1.8852459,0,0,1.8852459,-848.27228,-1508.5083)"
         id="path244" />
    </clipPath>
    <clipPath
       clipPathUnits="userSpaceOnUse"
       id="clipPath246">
      <path
         d="m 449.95312,800 h 61 v 12 h -61 z"
         transform="matrix(1.8852459,0,0,1.8852459,-848.27228,-1508.5083)"
         id="path246" />
    </clipPath>
    <clipPath
       clipPathUnits="userSpaceOnUse"
       id="clipPath248">
      <path
         d="m 449.95312,800 h 61 v 12 h -61 z"
         transform="matrix(1.8852459,0,0,1.8852459,-848.27228,-1508.5083)"
         id="path248" />
    </clipPath>
    <clipPath
       clipPathUnits="userSpaceOnUse"
       id="clipPath250">
      <path
         d="m 449.95312,800 h 61 v 12 h -61 z"
         transform="matrix(1.8852459,0,0,1.8852459,-848.27228,-1508.5083)"
         id="path250" />
    </clipPath>
    <clipPath
       clipPathUnits="userSpaceOnUse"
       id="clipPath252">
      <path
         d="m 449.95312,800 h 61 v 12 h -61 z"
         transform="matrix(1.8852459,0,0,1.8852459,-848.27228,-1508.5083)"
         id="path252" />
    </clipPath>
  </defs>
  <g
     inkscape:label="Livello 1"
     inkscape:groupmode="layer"
     id="layer1"
     transform="translate(-63.083441,-140.94323)">
    <path
       id="path211"
       d="M 0,0 H 33.009 V 22 H 0 Z"
       style="fill:#174094;fill-opacity:1;fill-rule:nonzero;stroke:none"
       transform="matrix(16.695653,0,0,16.695653,63.083441,140.94323)"
       clip-path="url(#clipPath212)" />
    <path
       id="path213"
       d="m 15.8019,4.79381 0.6972,-0.50769 0.6956,0.50769 -0.2642,-0.82037 0.707,-0.5085 h -0.8717 l -0.2667,-0.83188 -0.2667,0.8327 -0.8717,-8.2e-4 0.7071,0.5085 z"
       style="fill:#ffed00;fill-opacity:1;fill-rule:nonzero;stroke:none"
       transform="matrix(16.695653,0,0,16.695653,63.083441,140.94323)"
       clip-path="url(#clipPath214)" />
    <path
       id="path215"
       d="M 12.1974,5.76228 12.8946,5.25459 13.5901,5.76228 13.3259,4.94109 14.033,4.43258 h -0.8726 l -0.2667,-0.8327 -0.2666,0.83353 -0.8718,-8.3e-4 0.7071,0.50851 z"
       style="fill:#ffed00;fill-opacity:1;fill-rule:nonzero;stroke:none"
       transform="matrix(16.695653,0,0,16.695653,63.083441,140.94323)"
       clip-path="url(#clipPath216)" />
    <path
       id="path217"
       d="M 10.2564,6.24281 9.98969,7.07551 9.11798,7.07469 9.82506,7.5832 9.56001,8.40521 10.2564,7.89752 10.9528,8.40521 10.6877,7.5832 11.3956,7.07469 h -0.8725 z"
       style="fill:#ffed00;fill-opacity:1;fill-rule:nonzero;stroke:none"
       transform="matrix(16.695653,0,0,16.695653,63.083441,140.94323)"
       clip-path="url(#clipPath218)" />
    <path
       id="path219"
       d="m 9.2892,11.4958 0.69555,0.5085 -0.26423,-0.822 0.70708,-0.5077 H 9.55589 L 9.2892,9.84187 9.0225,10.6762 8.14996,10.6746 l 0.70791,0.5077 -0.26506,0.822 z"
       style="fill:#ffed00;fill-opacity:1;fill-rule:nonzero;stroke:none"
       transform="matrix(16.695653,0,0,16.695653,63.083441,140.94323)"
       clip-path="url(#clipPath220)" />
    <path
       id="path221"
       d="m 10.5231,14.2835 -0.2667,-0.8327 -0.26671,0.8335 -0.87171,-8e-4 0.70708,0.5085 -0.26505,0.8212 0.69639,-0.5085 0.6972,0.5085 -0.2659,-0.8212 0.7079,-0.5085 z"
       style="fill:#ffed00;fill-opacity:1;fill-rule:nonzero;stroke:none"
       transform="matrix(16.695653,0,0,16.695653,63.083441,140.94323)"
       clip-path="url(#clipPath222)" />
    <path
       id="path223"
       d="m 13.1662,16.9248 -0.2667,-0.8311 -0.2667,0.8319 -0.8725,-8e-4 0.7071,0.5085 -0.2643,0.822 0.6964,-0.5093 0.6964,0.5093 -0.2651,-0.822 0.7079,-0.5085 z"
       style="fill:#ffed00;fill-opacity:1;fill-rule:nonzero;stroke:none"
       transform="matrix(16.695653,0,0,16.695653,63.083441,140.94323)"
       clip-path="url(#clipPath224)" />
    <path
       id="path225"
       d="m 16.7658,17.8826 -0.2667,-0.8327 -0.2658,0.8335 -0.8726,-8e-4 0.7071,0.5076 -0.2651,0.8221 0.6964,-0.5077 0.6972,0.5077 -0.2658,-0.8221 0.7079,-0.5076 z"
       style="fill:#ffed00;fill-opacity:1;fill-rule:nonzero;stroke:none"
       transform="matrix(16.695653,0,0,16.695653,63.083441,140.94323)"
       clip-path="url(#clipPath226)" />
    <path
       id="path227"
       d="m 20.3663,16.9248 -0.2667,-0.8311 -0.2667,0.8319 -0.8709,-8e-4 0.7062,0.5085 -0.265,0.822 0.6964,-0.5093 0.6972,0.5093 -0.2659,-0.822 0.7079,-0.5085 z"
       style="fill:#ffed00;fill-opacity:1;fill-rule:nonzero;stroke:none"
       transform="matrix(16.695653,0,0,16.695653,63.083441,140.94323)"
       clip-path="url(#clipPath228)" />
    <path
       id="path229"
       d="m 23.0102,14.2835 -0.2675,-0.8327 -0.2675,0.8335 -0.8709,-8e-4 0.7071,0.5085 -0.2651,0.8212 0.6964,-0.5085 0.6972,0.5085 -0.2659,-0.8212 0.7071,-0.5085 z"
       style="fill:#ffed00;fill-opacity:1;fill-rule:nonzero;stroke:none"
       transform="matrix(16.695653,0,0,16.695653,63.083441,140.94323)"
       clip-path="url(#clipPath230)" />
    <path
       id="path231"
       d="m 24.8384,10.6639 h -0.8725 l -0.2675,-0.83273 -0.2659,0.83353 -0.8717,-8e-4 0.7071,0.5077 -0.2643,0.822 0.6948,-0.5085 0.6972,0.5085 -0.2651,-0.822 z"
       style="fill:#ffed00;fill-opacity:1;fill-rule:nonzero;stroke:none"
       transform="matrix(16.695653,0,0,16.695653,63.083441,140.94323)"
       clip-path="url(#clipPath232)" />
    <path
       id="path233"
       d="M 22.0463,8.39451 22.7427,7.886 23.4399,8.39451 23.174,7.5725 23.8811,7.06482 h -0.8709 l -0.2675,-0.83188 -0.2675,0.8327 -0.8709,-8.2e-4 0.7071,0.50768 z"
       style="fill:#ffed00;fill-opacity:1;fill-rule:nonzero;stroke:none"
       transform="matrix(16.695653,0,0,16.695653,63.083441,140.94323)"
       clip-path="url(#clipPath234)" />
    <path
       id="path235"
       d="M 20.1103,3.6007 19.8436,4.43423 18.971,4.43258 19.6781,4.94192 19.4131,5.7631 20.1111,5.25459 20.8066,5.7631 20.5416,4.94192 21.2495,4.43258 H 20.377 Z"
       style="fill:#ffed00;fill-opacity:1;fill-rule:nonzero;stroke:none"
       transform="matrix(16.695653,0,0,16.695653,63.083441,140.94323)"
       clip-path="url(#clipPath236)" />
    <path
       id="path237"
       d="M 48.7862,8.36324 C 48.0198,7.57991 46.9794,7.18742 45.664,7.18742 44.3,7.18742 43.2061,7.62763 42.3796,8.50888 41.5532,9.38931 41.14,10.668 41.14,12.3441 c 0,1.1223 0.2074,2.0538 0.6239,2.796 0.4157,0.7413 0.9919,1.2967 1.7278,1.6646 0.7367,0.3678 1.587,0.5512 2.5526,0.5512 0.7235,0 1.345,-0.0543 1.8636,-0.1629 0.5186,-0.1086 1.019,-0.2773 1.5022,-0.506 v -1.8275 c -0.5309,0.2411 -1.0495,0.4246 -1.5565,0.5513 -0.5071,0.1267 -1.0734,0.1901 -1.7007,0.1901 -0.833,0 -1.4849,-0.2436 -1.9549,-0.7324 -0.4709,-0.4895 -0.7186,-1.1791 -0.7425,-2.0719 h 6.4798 v -1.1585 c 0,-1.3988 -0.3836,-2.4907 -1.1491,-3.27486 z m -4.6154,1.09437 c 0.3803,-0.39167 0.8783,-0.58833 1.4932,-0.58833 0.6997,0 1.2158,0.22052 1.5483,0.66073 0.3318,0.44022 0.503,0.99809 0.5153,1.67359 h -4.217 c 0.0601,-0.7718 0.2807,-1.3535 0.6602,-1.74599 z"
       style="fill:#6b3087;fill-opacity:1;fill-rule:evenodd;stroke:none"
       transform="matrix(16.695653,0,0,16.695653,63.083441,140.94323)"
       clip-path="url(#clipPath238)" />
    <path
       id="path239"
       d="m 60.2156,7.36762 v 9.80648 h -1.792 l -0.3079,-1.2672 h -0.1086 c -0.3137,0.5069 -0.7483,0.8747 -1.3031,1.1043 -0.5548,0.2296 -1.14,0.3439 -1.7558,0.3439 -1.098,0 -1.9574,-0.283 -2.5789,-0.85 -0.6223,-0.5669 -0.9326,-1.4769 -0.9326,-2.7318 V 7.36844 h 2.2809 v 5.95236 c 0,0.7364 0.1441,1.2844 0.4338,1.6465 0.289,0.362 0.7483,0.5422 1.3755,0.5422 0.9162,0 1.5475,-0.2888 1.8908,-0.8681 0.3441,-0.5792 0.5161,-1.4054 0.5161,-2.4783 V 7.36844 Z"
       style="fill:#6b3087;fill-opacity:1;fill-rule:nonzero;stroke:none"
       transform="matrix(16.695653,0,0,16.695653,63.083441,140.94323)"
       clip-path="url(#clipPath240)" />
    <path
       id="path241"
       d="m 67.5457,7.18742 c 0.1564,0 0.3317,0.00905 0.5243,0.02715 0.1926,0.0181 0.3498,0.0395 0.4708,0.06336 L 68.3417,9.39507 C 68.2206,9.37121 68.0725,9.34981 67.898,9.33171 67.7226,9.31361 67.5753,9.30456 67.4543,9.30456 c -0.4832,0 -0.9351,0.09874 -1.3574,0.29786 -0.4222,0.19913 -0.763,0.50438 -1.0223,0.91418 -0.2601,0.4106 -0.3894,0.9347 -0.3894,1.5741 v 5.0834 H 62.4051 V 7.36762 h 1.7558 l 0.326,1.70079 h 0.1086 c 0.2898,-0.51839 0.6882,-0.96107 1.1944,-1.3297 0.5071,-0.3678 1.0915,-0.55129 1.7558,-0.55129 z"
       style="fill:#6b3087;fill-opacity:1;fill-rule:nonzero;stroke:none"
       transform="matrix(16.695653,0,0,16.695653,63.083441,140.94323)"
       clip-path="url(#clipPath242)" />
    <path
       id="path243"
       d="m 76.7575,16.0254 c 0.8445,-0.887 1.2668,-2.1443 1.2668,-3.7726 0,-1.0854 -0.1984,-2.0053 -0.5984,-2.75981 C 77.0275,8.73928 76.4784,8.16659 75.7788,7.7741 75.0791,7.38325 74.2765,7.1866 73.3719,7.1866 c -1.4479,0 -2.5913,0.43692 -3.4301,1.31159 -0.8379,0.87549 -1.2569,2.12621 -1.2569,3.75461 0,1.0853 0.1992,2.0085 0.5976,2.768 0.3976,0.7603 0.9466,1.3387 1.6471,1.737 0.6989,0.3982 1.4957,0.5973 2.3888,0.5973 1.4479,0 2.5945,-0.4435 3.4391,-1.3297 z m -5.1858,-1.3659 c -0.368,-0.5669 -0.5515,-1.3692 -0.5515,-2.4067 0,-1.0368 0.1811,-1.8333 0.5432,-2.38789 0.3614,-0.55541 0.9524,-0.83271 1.7731,-0.83271 0.8207,0 1.4174,0.2773 1.792,0.83271 0.3737,0.55539 0.5605,1.35109 0.5605,2.38789 0,1.0375 -0.1868,1.8398 -0.5605,2.4067 -0.3746,0.567 -0.9664,0.85 -1.7747,0.85 -0.8199,0 -1.4142,-0.283 -1.7821,-0.85 z"
       style="fill:#6b3087;fill-opacity:1;fill-rule:evenodd;stroke:none"
       transform="matrix(16.695653,0,0,16.695653,63.083441,140.94323)"
       clip-path="url(#clipPath244)" />
    <path
       id="path245"
       d="M 87.5802,8.4628 C 86.8797,7.61282 85.957,7.18742 84.8111,7.18742 c -0.7482,0 -1.345,0.14482 -1.792,0.43363 -0.4461,0.28964 -0.8083,0.63934 -1.0857,1.04911 H 81.8248 L 81.4988,7.36762 H 79.6525 V 21.5154 h 2.2801 v -3.9801 c 0,-0.2411 -0.0156,-0.4937 -0.0453,-0.7594 -0.0304,-0.265 -0.0634,-0.5127 -0.0996,-0.7422 h 0.1449 c 0.2651,0.3505 0.6215,0.6582 1.0676,0.9232 0.4462,0.2657 1.0314,0.3982 1.7558,0.3982 1.1466,0 2.0784,-0.4303 2.797,-1.2935 0.7178,-0.8623 1.0767,-2.1319 1.0767,-3.8088 0,-1.6753 -0.3498,-2.93919 -1.0495,-3.79 z M 82.4495,9.75629 C 82.7813,9.27411 83.3517,9.0322 84.16,9.0322 c 0.7359,0 1.2759,0.27812 1.6183,0.83271 0.3441,0.55459 0.5161,1.33869 0.5161,2.35169 0,1.0129 -0.172,1.8118 -0.5161,2.3969 -0.3432,0.585 -0.8717,0.8779 -1.5829,0.8779 -0.8684,0 -1.4635,-0.2806 -1.7829,-0.8409 -0.3194,-0.5612 -0.4791,-1.3667 -0.4791,-2.4158 V 11.945 c 0.0124,-0.9767 0.1836,-1.7057 0.5161,-2.18871 z"
       style="fill:#6b3087;fill-opacity:1;fill-rule:evenodd;stroke:none"
       transform="matrix(16.695653,0,0,16.695653,63.083441,140.94323)"
       clip-path="url(#clipPath246)" />
    <path
       id="path247"
       d="m 97.0554,8.02012 c -0.6577,-0.55541 -1.6199,-0.8327 -2.8867,-0.8327 -0.6758,0 -1.3245,0.07817 -1.946,0.23615 -0.6214,0.15634 -1.1738,0.36122 -1.6561,0.61465 l 0.7243,1.59218 c 0.4462,-0.20488 0.8964,-0.37686 1.3484,-0.51509 0.4519,-0.13824 0.926,-0.20818 1.4207,-0.20818 0.5425,0 0.9656,0.13248 1.2668,0.39825 0.3013,0.26495 0.4528,0.71172 0.4528,1.33872 v 0.488 l -1.7015,0.0543 c -1.5088,0.06 -2.6341,0.3431 -3.3757,0.85 -0.7417,0.5068 -1.1129,1.2671 -1.1129,2.28 0,1.0368 0.2897,1.8028 0.8692,2.2974 0.5787,0.4945 1.3088,0.7413 2.1896,0.7413 0.8083,0 1.4479,-0.1234 1.9188,-0.3702 0.47,-0.2477 0.9169,-0.6361 1.3392,-1.1676 h 0.0725 l 0.4527,1.3568 h 1.6109 V 10.589 c 0,-1.15772 -0.3293,-2.01429 -0.987,-2.56888 z m -2.4702,4.55848 1.1944,-0.0362 v 0.8327 c 0,0.7479 -0.2297,1.3124 -0.6882,1.6917 -0.4585,0.3802 -1.0199,0.5694 -1.6833,0.5694 -0.447,0 -0.8051,-0.0995 -1.0767,-0.2987 -0.2716,-0.1991 -0.4075,-0.534 -0.4075,-1.0038 0,-0.5184 0.1935,-0.9314 0.5795,-1.2392 0.3861,-0.3077 1.08,-0.4797 2.0818,-0.5159 z"
       style="fill:#6b3087;fill-opacity:1;fill-rule:evenodd;stroke:none"
       transform="matrix(16.695653,0,0,16.695653,63.083441,140.94323)"
       clip-path="url(#clipPath248)" />
    <path
       id="path249"
       d="m 106.856,14.3337 c 0,0.989 -0.353,1.7403 -1.059,2.2521 -0.706,0.5126 -1.716,0.7693 -3.032,0.7693 -0.688,0 -1.276,-0.0485 -1.764,-0.1448 -0.489,-0.0963 -0.962,-0.2468 -1.421,-0.4525 v -1.9362 c 0.483,0.2296 1.017,0.4221 1.602,0.5793 0.585,0.1572 1.137,0.2353 1.656,0.2353 0.627,0 1.08,-0.0971 1.357,-0.2896 0.278,-0.1934 0.417,-0.4526 0.417,-0.7784 0,-0.1925 -0.054,-0.3645 -0.163,-0.5151 -0.109,-0.1506 -0.319,-0.3168 -0.634,-0.4978 -0.314,-0.181 -0.79,-0.404 -1.43,-0.669 -0.627,-0.2534 -1.149,-0.5068 -1.565,-0.7594 -0.417,-0.2535 -0.73,-0.5546 -0.9412,-0.9043 -0.2115,-0.3497 -0.3169,-0.8023 -0.3169,-1.35687 0,-0.88043 0.3498,-1.54692 1.0491,-1.99948 0.7,-0.45255 1.624,-0.67883 2.769,-0.67883 0.604,0 1.173,0.06089 1.711,0.18102 0.537,0.12096 1.077,0.30198 1.62,0.54307 l -0.724,1.68269 c -0.459,-0.19337 -0.905,-0.35547 -1.34,-0.48877 -0.434,-0.13247 -0.88,-0.19912 -1.339,-0.19912 -1.002,0 -1.502,0.28305 -1.502,0.84998 0,0.20571 0.063,0.38011 0.19,0.52501 0.127,0.1448 0.35,0.2986 0.669,0.4616 0.32,0.1629 0.776,0.3587 1.367,0.5883 0.579,0.2287 1.08,0.4674 1.502,0.7142 0.422,0.2477 0.748,0.5488 0.978,0.9043 0.229,0.3563 0.344,0.8171 0.344,1.384 z"
       style="fill:#6b3087;fill-opacity:1;fill-rule:nonzero;stroke:none"
       transform="matrix(16.695653,0,0,16.695653,63.083441,140.94323)"
       clip-path="url(#clipPath250)" />
    <path
       id="path251"
       d="m 115,14.3337 c 0,0.989 -0.353,1.7403 -1.059,2.2521 -0.706,0.5126 -1.716,0.7693 -3.032,0.7693 -0.688,0 -1.276,-0.0485 -1.764,-0.1448 -0.489,-0.0963 -0.962,-0.2468 -1.421,-0.4525 v -1.9362 c 0.483,0.2296 1.017,0.4221 1.602,0.5793 0.585,0.1572 1.137,0.2353 1.656,0.2353 0.627,0 1.08,-0.0971 1.358,-0.2896 0.277,-0.1934 0.416,-0.4526 0.416,-0.7784 0,-0.1925 -0.054,-0.3645 -0.163,-0.5151 -0.109,-0.1506 -0.319,-0.3168 -0.634,-0.4978 -0.313,-0.181 -0.79,-0.404 -1.43,-0.669 -0.627,-0.2534 -1.149,-0.5068 -1.565,-0.7594 -0.417,-0.2535 -0.73,-0.5546 -0.941,-0.9043 -0.212,-0.3497 -0.317,-0.8023 -0.317,-1.35687 0,-0.88043 0.35,-1.54692 1.05,-1.99948 0.699,-0.45255 1.623,-0.67883 2.769,-0.67883 0.603,0 1.173,0.06089 1.71,0.18102 0.537,0.12096 1.077,0.30198 1.62,0.54307 l -0.724,1.68269 c -0.459,-0.19337 -0.905,-0.35547 -1.339,-0.48877 -0.434,-0.13247 -0.881,-0.19912 -1.34,-0.19912 -1.002,0 -1.502,0.28305 -1.502,0.84998 0,0.20571 0.063,0.38011 0.19,0.52501 0.127,0.1448 0.35,0.2986 0.669,0.4616 0.32,0.1629 0.776,0.3587 1.367,0.5883 0.579,0.2287 1.08,0.4674 1.502,0.7142 0.422,0.2477 0.748,0.5488 0.978,0.9043 0.23,0.3563 0.344,0.8171 0.344,1.384 z"
       style="fill:#6b3087;fill-opacity:1;fill-rule:nonzero;stroke:none"
       transform="matrix(16.695653,0,0,16.695653,63.083441,140.94323)"
       clip-path="url(#clipPath252)" />
  </g>
</svg>
