<?xml version="1.0" encoding="UTF-8" standalone="no"?>
<!-- Created with Inkscape (http://www.inkscape.org/) -->

<svg
   width="211.66667mm"
   height="211.66667mm"
   viewBox="0 0 211.66667 211.66667"
   version="1.1"
   id="svg1"
   xml:space="preserve"
   inkscape:version="1.4.2 (ebf0e940, 2025-05-08)"
   sodipodi:docname="photo.svg"
   xmlns:inkscape="http://www.inkscape.org/namespaces/inkscape"
   xmlns:sodipodi="http://sodipodi.sourceforge.net/DTD/sodipodi-0.dtd"
   xmlns="http://www.w3.org/2000/svg"
   xmlns:svg="http://www.w3.org/2000/svg"><sodipodi:namedview
     id="namedview1"
     pagecolor="#505050"
     bordercolor="#ffffff"
     borderopacity="1"
     inkscape:showpageshadow="0"
     inkscape:pageopacity="0"
     inkscape:pagecheckerboard="1"
     inkscape:deskcolor="#d1d1d1"
     inkscape:document-units="mm"
     inkscape:zoom="0.68104829"
     inkscape:cx="272.37422"
     inkscape:cy="463.25643"
     inkscape:window-width="1920"
     inkscape:window-height="958"
     inkscape:window-x="0"
     inkscape:window-y="30"
     inkscape:window-maximized="1"
     inkscape:current-layer="layer1" /><defs
     id="defs1" /><g
     inkscape:label="Livello 1"
     inkscape:groupmode="layer"
     id="layer1"
     transform="translate(0.36311764,-45.205925)"><rect
       style="fill:#ffffff;fill-opacity:1;stroke:none;stroke-width:5.52204;stroke-linecap:square;stroke-dasharray:none;stroke-opacity:1;paint-order:stroke fill markers"
       id="rect3"
       width="211.66667"
       height="211.66667"
       x="-0.36311764"
       y="45.205925" /><path
       id="path1"
       style="baseline-shift:baseline;display:inline;overflow:visible;opacity:1;vector-effect:none;stroke-linecap:square;paint-order:stroke fill markers;enable-background:accumulate;stop-color:#000000;stop-opacity:1;fill:#000000;fill-opacity:1"
       d="m 105.45431,64.297103 c -0.26452,-6.28e-4 -0.52668,3.4e-5 -0.78651,0.0021 l -2.2133,0.0057 v 0.04496 c -10.258373,0.395259 -16.575433,2.943767 -20.404444,5.783109 -2.096331,1.554502 -3.422341,3.182104 -4.218864,4.47673 -0.39737,0.645865 -0.381335,0.784822 -0.564823,1.247985 -8.478459,5.788373 -10.560785,15.480593 -10.448975,23.289024 0.08836,6.170709 1.215091,10.512589 1.839681,12.673639 -1.339629,1.4266 -2.184226,3.24472 -2.632397,5.12113 -0.630564,2.64006 -0.60825,5.51517 -0.117306,8.36125 0.889867,5.15871 3.316889,10.3433 7.763351,13.0235 1.34269,5.16492 3.450011,9.84336 6.31641,13.98622 l -0.343648,6.38514 -3.746025,6.04873 -30.384709,12.57029 -0.140559,0.076 c -6.388577,3.47414 -10.078487,6.10122 -12.558924,9.50226 -2.480436,3.40104 -3.438873,7.07431 -5.015198,12.27108 -4.846155,15.97663 -5.828584,35.30121 -5.828584,35.30121 l -0.15813,2.99568 5.990332,0.31884 0.160197,-2.99465 c 0,0 1.060293,-18.99206 5.576404,-33.88061 1.595344,-5.25947 2.453593,-8.18772 4.122745,-10.47637 1.658401,-2.27391 4.45268,-4.42089 10.488249,-7.71116 l 31.636829,-13.08757 c 0.843533,4.74288 2.410608,12.88325 4.636409,21.69842 2.979735,11.80107 7.283861,24.81143 11.04015,32.49672 l 6.281789,-29.25351 -5.719549,-9.09453 6.469889,-8.43876 -17.607708,-15.4125 0.666626,-1.07642 0.529167,-9.85935 -0.640271,-0.86506 c -2.9672,-4.02029 -5.075197,-8.67338 -6.328296,-14.05651 l -0.343648,-1.47691 -1.394747,-0.59945 c -2.2903,-0.98449 -4.805832,-5.05697 -5.556767,-9.41027 -0.375468,-2.17665 -0.341358,-4.34465 0.04134,-5.94693 0.382695,-1.60227 1.034271,-2.48229 1.671733,-2.84995 l 2.129069,-1.22629 -0.783415,-2.32802 c 0,0 -1.960414,-5.89269 -2.060339,-12.871049 C 72.717624,92.08259 74.347699,84.6494 81.19636,80.38302 l 1.030945,-0.64079 0.293006,-1.1777 c 0,0 -0.0034,-0.11852 0.422196,-0.81029 0.425613,-0.69177 1.213365,-1.712195 2.68149,-2.80086 2.864394,-2.124046 8.413514,-4.564988 19.037083,-4.654496 h 0.003 c 0.26556,-0.0022 0.53422,-0.0028 0.80616,-0.0021 l 0.8046,0.0021 c 9.7e-4,8e-6 0.002,-9e-6 0.003,0 10.62454,0.08929 16.17411,2.530351 19.03863,4.654496 1.46812,1.088665 2.25587,2.10909 2.68149,2.80086 0.42519,0.69177 0.4222,0.81029 0.4222,0.81029 l 0.29301,1.1777 1.03094,0.64079 c 6.84866,4.26638 8.47872,11.69957 8.37882,18.677931 -0.0999,6.978359 -2.06034,12.871049 -2.06034,12.871049 l -0.78342,2.32802 2.12907,1.22629 c 0.63747,0.36766 1.28904,1.24768 1.67174,2.84995 0.38266,1.60228 0.41681,3.77028 0.0413,5.94693 -0.75094,4.3533 -3.26647,8.42578 -5.55677,9.41027 l -1.39475,0.59945 -0.34365,1.47691 c -1.2531,5.38313 -3.36109,10.03622 -6.32829,14.05651 l -0.64027,0.86506 0.52916,9.85935 0.66663,1.07642 -17.60771,15.4125 6.46989,8.43876 -5.71955,9.09453 6.28179,29.25351 c 3.75629,-7.68529 8.06042,-20.69565 11.04015,-32.49672 2.2258,-8.81517 3.79288,-16.95554 4.63641,-21.69842 l 31.63683,13.08757 c 6.03557,3.29027 8.82985,5.43725 10.48825,7.71116 1.66915,2.28865 2.5274,5.2169 4.12274,10.47637 4.51612,14.88855 5.57641,33.88061 5.57641,33.88061 l 0.16019,2.99465 5.99034,-0.31884 -0.15813,-2.99568 c 0,0 -0.98244,-19.32458 -5.82859,-35.30121 -1.57633,-5.19677 -2.53477,-8.87004 -5.0152,-12.27108 -2.48044,-3.40104 -6.17034,-6.02812 -12.55892,-9.50226 l -0.14056,-0.076 -30.38471,-12.57029 -3.74602,-6.04873 -0.34365,-6.38514 c 2.8664,-4.14286 4.97372,-8.8213 6.31641,-13.98622 4.44646,-2.6802 6.87348,-7.86479 7.76335,-13.0235 0.49095,-2.84608 0.51325,-5.72119 -0.11731,-8.36125 -0.44818,-1.87641 -1.29276,-3.69453 -2.63239,-5.12113 0.62459,-2.16105 1.75128,-6.50293 1.83968,-12.673639 0.11181,-7.808431 -1.97052,-17.500651 -10.44898,-23.289024 -0.18348,-0.463163 -0.16745,-0.60212 -0.56482,-1.247985 -0.79652,-1.294626 -2.12253,-2.922228 -4.21886,-4.47673 -3.82901,-2.839337 -10.14611,-5.387844 -20.40444,-5.783109 v -0.04496 l -2.21485,-0.0057 c -0.26953,-0.0021 -0.5414,-0.0028 -0.81598,-0.0021 z" /></g></svg>
